<?xml version="1.0" standalone="no"?>
<!DOCTYPE svg PUBLIC "-//W3C//DTD SVG 20010904//EN"
 "http://www.w3.org/TR/2001/REC-SVG-20010904/DTD/svg10.dtd">
<svg version="1.0" xmlns="http://www.w3.org/2000/svg"
 width="77.000000pt" height="77.000000pt" viewBox="0 0 77.000000 77.000000"
 preserveAspectRatio="xMidYMid meet">
<metadata>
Created by potrace 1.14, written by Peter Selinger 2001-2017
</metadata>
<g transform="translate(0.000000,77.000000) scale(0.100000,-0.100000)"
fill="#000000" stroke="none">
<path d="M10 725 c7 -8 9 -15 6 -15 -4 0 2 -10 14 -22 11 -12 20 -27 20 -33 0
-7 9 -20 20 -30 19 -17 42 -19 233 -21 241 -1 230 -1 222 -14 -3 -5 -2 -10 3
-10 15 0 9 -54 -8 -67 -8 -7 -25 -10 -37 -8 -13 2 -23 -1 -23 -6 0 -5 -3 -8
-7 -8 -25 4 -43 -2 -37 -13 5 -7 3 -8 -6 -3 -8 5 -18 1 -27 -10 -7 -11 -13
-15 -13 -10 0 12 -28 -27 -28 -39 0 -5 -7 -13 -16 -18 -9 -5 -14 -13 -11 -19
4 -5 1 -9 -5 -9 -6 0 -9 -4 -6 -9 3 -5 -1 -12 -10 -15 -8 -3 -12 -10 -9 -16 3
-5 -2 -10 -12 -10 -11 0 -24 13 -32 33 -8 17 -27 51 -42 73 -16 23 -25 44 -22
48 8 7 -3 9 -89 11 -57 2 -66 0 -63 -15 4 -19 65 -122 78 -131 5 -3 9 -10 10
-15 2 -26 23 -64 34 -64 7 0 12 -3 11 -8 -4 -14 13 -52 24 -52 5 0 8 -6 6 -12
-3 -7 5 -21 16 -31 12 -10 14 -15 6 -11 -13 7 -13 6 0 -12 8 -10 23 -27 32
-37 10 -10 16 -22 13 -26 -2 -5 2 -14 10 -21 12 -10 15 -9 15 8 0 11 7 22 15
26 8 3 14 9 13 13 -1 4 9 28 24 53 15 25 32 57 39 73 7 15 16 27 21 27 5 0 7
4 3 9 -3 5 -1 12 5 16 6 4 7 11 4 17 -4 6 -2 8 4 4 10 -6 28 30 24 47 -1 5 2
6 7 3 5 -3 12 1 15 10 3 8 10 13 15 9 5 -3 13 0 17 6 4 8 9 7 15 -2 7 -12 9
-12 9 0 0 7 6 11 15 7 8 -3 15 -1 15 4 0 6 9 10 19 10 11 0 27 7 35 16 9 8 16
12 16 7 0 -8 43 57 45 67 0 3 3 10 6 15 12 22 10 94 -4 128 -19 43 -68 97 -91
97 -9 0 -16 5 -16 10 0 6 -99 10 -276 10 -245 0 -275 -2 -264 -15z"/>
<path d="M516 331 c-3 -5 -16 -7 -28 -3 -14 3 -19 2 -14 -6 4 -7 3 -12 -3 -12
-14 0 -26 -63 -12 -68 6 -2 11 -10 11 -18 0 -8 4 -14 9 -14 5 0 12 -7 15 -16
4 -10 2 -13 -7 -9 -6 4 -1 -3 12 -14 13 -12 20 -21 17 -21 -8 0 45 -82 59 -92
9 -7 30 28 27 44 -1 5 2 8 7 8 5 0 17 14 25 31 13 26 14 35 3 47 -10 13 -9 14
3 7 13 -8 13 -7 0 11 -8 10 -17 21 -20 24 -3 3 -14 23 -25 45 -28 56 -64 81
-79 56z"/>
</g>
</svg>
